<?xml version="1.0" encoding="UTF-8"?>
<svg width="586px" height="155px" viewBox="0 0 586 155" version="1.1" xmlns="http://www.w3.org/2000/svg" xmlns:xlink="http://www.w3.org/1999/xlink">
    <!-- Generator: Sketch 46.2 (44496) - http://www.bohemiancoding.com/sketch -->
    <title>Logo Copy</title>
    <desc>Created with Sketch.</desc>
    <defs>
        <ellipse id="path-1" cx="323" cy="105" rx="24" ry="28"></ellipse>
    </defs>
    <g id="Page-1" stroke="none" stroke-width="1" fill="none" fill-rule="evenodd">
        <g id="Logo-Copy" transform="translate(0.000000, -18.000000)">
            <path d="M177.72,69.48 C179.352008,71.1600084 180.168,73.2479875 180.168,75.744 L180.168,112.32 C180.168,122.688052 177.312029,130.799971 171.6,136.656 C165.887971,142.512029 157.752053,145.44 147.192,145.44 C136.631947,145.44 128.520028,142.512029 122.856,136.656 C117.191972,130.799971 114.36,122.688052 114.36,112.32 L114.36,75.744 C114.36,73.2479875 115.175992,71.1600084 116.808,69.48 C118.440008,67.7999916 120.503988,66.96 123,66.96 C125.496012,66.96 127.559992,67.7999916 129.192,69.48 C130.824008,71.1600084 131.64,73.2479875 131.64,75.744 L131.64,112.32 C131.64,118.176029 132.935987,122.519986 135.528,125.352 C138.120013,128.184014 142.007974,129.6 147.192,129.6 C152.472026,129.6 156.407987,128.184014 159,125.352 C161.592013,122.519986 162.888,118.176029 162.888,112.32 L162.888,75.744 C162.888,73.2479875 163.703992,71.1600084 165.336,69.48 C166.968008,67.7999916 169.031988,66.96 171.528,66.96 C174.024012,66.96 176.087992,67.7999916 177.72,69.48 Z M267.432,39.888 C269.064008,41.5200082 269.88,43.631987 269.88,46.224 L269.88,135.216 C269.88,137.712012 269.064008,139.799992 267.432,141.48 C265.799992,143.160008 263.736012,144 261.24,144 C258.743988,144 256.704008,143.184008 255.12,141.552 C253.535992,139.919992 252.696,137.856012 252.6,135.36 C250.199988,138.144014 246.96002,140.51999 242.88,142.488 C238.79998,144.45601 234.504023,145.44 229.992,145.44 C223.367967,145.44 217.368027,143.736017 211.992,140.328 C206.615973,136.919983 202.368016,132.19203 199.248,126.144 C196.127984,120.09597 194.568,113.232038 194.568,105.552 C194.568,97.8719616 196.103985,90.9840305 199.176,84.888 C202.248015,78.7919695 206.447973,74.040017 211.776,70.632 C217.104027,67.223983 222.983968,65.52 229.416,65.52 C234.024023,65.52 238.34398,66.3599916 242.376,68.04 C246.40802,69.7200084 249.815986,71.855987 252.6,74.448 L252.6,46.224 C252.6,43.7279875 253.415992,41.6400084 255.048,39.96 C256.680008,38.2799916 258.743988,37.44 261.24,37.44 C263.736012,37.44 265.799992,38.2559918 267.432,39.888 Z M247.416,122.76 C251.35202,118.199977 253.32,112.464035 253.32,105.552 C253.32,98.6399654 251.35202,92.880023 247.416,88.272 C243.47998,83.663977 238.392031,81.36 232.152,81.36 C226.007969,81.36 220.96802,83.663977 217.032,88.272 C213.09598,92.880023 211.128,98.6399654 211.128,105.552 C211.128,112.464035 213.071981,118.199977 216.96,122.76 C220.848019,127.320023 225.911969,129.6 232.152,129.6 C238.392031,129.6 243.47998,127.320023 247.416,122.76 Z M358.584,67.968 C360.216008,69.6000082 361.032,71.711987 361.032,74.304 L361.032,138.384 C361.032,150.096059 357.408036,158.759972 350.16,164.376 C342.911964,169.992028 333.720056,172.8 322.584,172.8 C319.703986,172.8 315.744025,172.320005 310.704,171.36 C305.663975,170.399995 302.088011,169.440005 299.976,168.48 C295.271976,166.46399 292.92,163.680018 292.92,160.128 C292.92,159.455997 293.063999,158.688004 293.352,157.824 C293.928003,155.711989 294.911993,154.104006 296.304,153 C297.696007,151.895994 299.207992,151.344 300.84,151.344 C301.800005,151.344 302.711996,151.487999 303.576,151.776 C303.960002,151.872 306.335978,152.759992 310.704,154.44 C315.072022,156.120008 319.031982,156.96 322.584,156.96 C329.688036,156.96 334.991982,155.544014 338.496,152.712 C342.000018,149.879986 343.752,145.872026 343.752,140.688 L343.752,133.776 C341.639989,136.752015 338.448021,139.439988 334.176,141.84 C329.903979,144.240012 325.320024,145.44 320.424,145.44 C313.703966,145.44 307.584028,143.736017 302.064,140.328 C296.543972,136.919983 292.200016,132.19203 289.032,126.144 C285.863984,120.09597 284.28,113.232038 284.28,105.552 C284.28,97.8719616 285.839984,90.9840305 288.96,84.888 C292.080016,78.7919695 296.351973,74.040017 301.776,70.632 C307.200027,67.223983 313.223967,65.52 319.848,65.52 C324.744024,65.52 329.303979,66.5279899 333.528,68.544 C337.752021,70.5600101 341.159987,73.0079856 343.752,75.888 L343.752,74.304 C343.752,71.8079875 344.567992,69.7200084 346.2,68.04 C347.832008,66.3599916 349.895988,65.52 352.392,65.52 C354.888012,65.52 356.951992,66.3359918 358.584,67.968 Z M338.352,122.76 C342.43202,118.199977 344.472,112.464035 344.472,105.552 C344.472,98.6399654 342.43202,92.880023 338.352,88.272 C334.27198,83.663977 329.016032,81.36 322.584,81.36 C316.151968,81.36 310.92002,83.663977 306.888,88.272 C302.85598,92.880023 300.84,98.6399654 300.84,105.552 C300.84,112.464035 302.85598,118.199977 306.888,122.76 C310.92002,127.320023 316.151968,129.6 322.584,129.6 C329.016032,129.6 334.27198,127.320023 338.352,122.76 Z M443.256,109.296 C441.527991,110.736007 439.512012,111.456 437.208,111.456 L389.688,111.456 C390.840006,117.120028 393.479979,121.559984 397.608,124.776 C401.736021,127.992016 406.391974,129.6 411.576,129.6 C415.51202,129.6 418.583989,129.240004 420.792,128.52 C423.000011,127.799996 424.751994,127.032004 426.048,126.216 C427.344006,125.399996 428.231998,124.848001 428.712,124.56 C430.440009,123.695996 432.071992,123.264 433.608,123.264 C435.62401,123.264 437.351993,123.983993 438.792,125.424 C440.232007,126.864007 440.952,128.54399 440.952,130.464 C440.952,133.056013 439.608013,135.407989 436.92,137.52 C434.231987,139.728011 430.632023,141.599992 426.12,143.136 C421.607977,144.672008 417.048023,145.44 412.44,145.44 C404.37596,145.44 397.34403,143.760017 391.344,140.4 C385.34397,137.039983 380.712016,132.40803 377.448,126.504 C374.183984,120.59997 372.552,113.952037 372.552,106.56 C372.552,98.3039587 374.279983,91.0560312 377.736,84.816 C381.192017,78.5759688 385.751972,73.8000166 391.416,70.488 C397.080028,67.1759834 403.127968,65.52 409.56,65.52 C415.896032,65.52 421.871972,67.2479827 427.488,70.704 C433.104028,74.1600173 437.591983,78.8159707 440.952,84.672 C444.312017,90.5280293 445.992,96.8639659 445.992,103.68 C445.896,105.984012 444.984009,107.855993 443.256,109.296 Z M389.832,97.056 L427.56,97.056 L427.56,96.048 C427.175998,92.0159798 425.208018,88.5600144 421.656,85.68 C418.103982,82.7999856 414.072023,81.36 409.56,81.36 C398.423944,81.36 391.84801,86.5919477 389.832,97.056 Z M501.216,129.672 C502.320006,130.968006 502.872,132.671989 502.872,134.784 C502.872,137.376013 501.456014,139.559991 498.624,141.336 C495.791986,143.112009 492.600018,144 489.048,144 C483.09597,144 478.08002,142.728013 474,140.184 C469.91998,137.639987 467.88,132.240041 467.88,123.984 L467.88,84.24 L461.256,84.24 C458.951988,84.24 457.032008,83.4720077 455.496,81.936 C453.959992,80.3999923 453.192,78.4800115 453.192,76.176 C453.192,73.967989 453.959992,72.1200074 455.496,70.632 C457.032008,69.1439926 458.951988,68.4 461.256,68.4 L467.88,68.4 L467.88,59.184 C467.88,56.6879875 468.719992,54.6000084 470.4,52.92 C472.080008,51.2399916 474.167988,50.4 476.664,50.4 C479.064012,50.4 481.079992,51.2399916 482.712,52.92 C484.344008,54.6000084 485.16,56.6879875 485.16,59.184 L485.16,68.4 L495.384,68.4 C497.688012,68.4 499.607992,69.1679923 501.144,70.704 C502.680008,72.2400077 503.448,74.1599885 503.448,76.464 C503.448,78.672011 502.680008,80.5199926 501.144,82.008 C499.607992,83.4960074 497.688012,84.24 495.384,84.24 L485.16,84.24 L485.16,123.264 C485.16,125.28001 485.687995,126.743995 486.744,127.656 C487.800005,128.568005 489.239991,129.024 491.064,129.024 C491.832004,129.024 492.887993,128.832002 494.232,128.448 C495.384006,127.967998 496.487995,127.728 497.544,127.728 C498.888007,127.728 500.111994,128.375994 501.216,129.672 Z M582.648,69.48 C584.280008,71.1600084 585.096,73.2479875 585.096,75.744 L585.096,136.944 C585.096,149.424062 581.736034,158.519971 575.016,164.232 C568.295966,169.944029 559.320056,172.8 548.088,172.8 C544.823984,172.8 541.488017,172.536003 538.08,172.008 C534.671983,171.479997 531.912011,170.784004 529.8,169.92 C525.095976,167.90399 522.744,165.120018 522.744,161.568 C522.744,160.895997 522.887999,160.128004 523.176,159.264 C523.752003,157.151989 524.735993,155.544006 526.128,154.44 C527.520007,153.335994 529.031992,152.784 530.664,152.784 C531.624005,152.784 532.535996,152.927999 533.4,153.216 C534.072003,153.504001 535.247992,153.983997 536.928,154.656 C538.608008,155.328003 540.383991,155.879998 542.256,156.312 C544.128009,156.744002 546.07199,156.96 548.088,156.96 C554.904034,156.96 559.919984,155.496015 563.136,152.568 C566.352016,149.639985 567.96,144.624036 567.96,137.52 L567.96,136.08 C562.967975,142.320031 555.192053,145.44 544.632,145.44 C539.639975,145.44 535.224019,144.264012 531.384,141.912 C527.543981,139.559988 524.568011,136.296021 522.456,132.12 C520.343989,127.943979 519.288,123.168027 519.288,117.792 L519.288,75.744 C519.288,73.2479875 520.103992,71.1600084 521.736,69.48 C523.368008,67.7999916 525.431988,66.96 527.928,66.96 C530.424012,66.96 532.487992,67.7999916 534.12,69.48 C535.752008,71.1600084 536.568,73.2479875 536.568,75.744 L536.568,112.608 C536.568,118.65603 537.887987,122.999987 540.528,125.64 C543.168013,128.280013 547.031975,129.6 552.12,129.6 C557.112025,129.6 560.975986,128.136015 563.712,125.208 C566.448014,122.279985 567.816,118.080027 567.816,112.608 L567.816,75.744 C567.816,73.2479875 568.631992,71.1600084 570.264,69.48 C571.896008,67.7999916 573.959988,66.96 576.456,66.96 C578.952012,66.96 581.015992,67.7999916 582.648,69.48 Z" id="udgety" fill="#77BF25"></path>
            <path d="M91.67,85.68 C95.6900201,90.8400258 97.7,97.4999592 97.7,105.66 C97.7,119.940071 93.6200408,129.899972 85.46,135.54 C77.2999592,141.180028 67.5800564,144 56.3,144 L11.48,144 C8.3599844,144 5.7500105,142.950011 3.65,140.85 C1.5499895,138.74999 0.5,136.140016 0.5,133.02 L0.5,28.98 C0.5,25.8599844 1.5499895,23.2500105 3.65,21.15 C5.7500105,19.0499895 8.3599844,18 11.48,18 L56.84,18 C79.640114,18 91.04,28.6798932 91.04,50.04 C91.04,55.440027 89.7500129,60.2099793 87.17,64.35 C84.5899871,68.4900207 80.900024,71.759988 76.1,74.16 C82.4600318,76.6800126 87.6499799,80.5199742 91.67,85.68 Z M63.95,42.93 C61.4899877,40.4699877 58.0400222,39.24 53.6,39.24 L23.9,39.24 L23.9,67.32 L54.14,67.32 C57.740018,67.32 60.8899865,66.120012 63.59,63.72 C66.2900135,61.319988 67.64,58.0800204 67.64,54 C67.64,49.0799754 66.4100123,45.3900123 63.95,42.93 Z M69.53,118.8 C72.7100159,115.799985 74.3,111.420029 74.3,105.66 C74.3,98.5799646 72.4400186,93.9600108 68.72,91.8 C64.9999814,89.6399892 60.440027,88.56 55.04,88.56 L23.9,88.56 L23.9,123.3 L56.3,123.3 C61.9400282,123.3 66.3499841,121.800015 69.53,118.8 Z M49.1,18 L38.5,18 L38.5,39.24 L49.1,39.24 L49.1,18 Z M48.5,67.32 L38.5,67.32 L38.5,88.56 L48.5,88.56 L48.5,67.32 Z M47.5,123.3 L38.5,123.3 L38.5,144 L47.5,144 L47.5,123.3 Z" id="B" fill="#77BF25"></path>
            <mask id="mask-2" fill="white">
                <use xlink:href="#path-1"></use>
            </mask>
            <use id="Oval-2" fill="#77BF25" xlink:href="#path-1"></use>
        </g>
    </g>
</svg>